# xmcd CD database file
#
# Track frame offsets:
#	150
#	14157
#	32675
#	51268
#	70939
#	86920
#	102530
#	125785
#	144010
#	161894
#
# Disc length: 2324 seconds
#
# Revision: 0
# Processed by: cddbd v1.5.2PL0 Copyright (c) Steve Scherf et al.
# Submitted via: CDex 1.70beta2
#
DISCID=9309120a
DTITLE=ZENET - LOS MARES DE CHINA
DYEAR=1900
DGENRE=Jazz
TTITLE0=SOÑAR CONTIGO
TTITLE1=ESTELA
TTITLE2=UN BESO DE ESOS
TTITLE3=EN EL MISMO LADO DE LA CAMA
TTITLE4=ENTRE TU BALCￓN Y MI VENTANA
TTITLE5=YO QUE UN DIA TE QUISE SIEMPRE
TTITLE6=DIENTES DE RATA
TTITLE7=AGUA DE LEVANTE
TTITLE8=LAS CAUSAS PERDIDAS
TTITLE9=NA DE NA
EXTD=
EXTT0=
EXTT1=
EXTT2=
EXTT3=
EXTT4=
EXTT5=
EXTT6=
EXTT7=
EXTT8=
EXTT9=
PLAYORDER=
